<svg xml:space="preserve" style="enable-background:new 0 0 80 80;" viewBox="0 0 80 80" y="0px" x="0px" xmlns:xlink="http://www.w3.org/1999/xlink" xmlns="http://www.w3.org/2000/svg" version="1.1">
<style type="text/css">
	.st0{display:none;}
	.st1{display:inline;fill:#FFFFFF;stroke:#000000;stroke-width:2;stroke-miterlimit:10;}
	.st2{stroke:#404040;stroke-width:1.5;stroke-miterlimit:10;}
	.st3{fill-rule:evenodd;clip-rule:evenodd;}
	.st4{clip-path:url(#SVGID_00000078045340311543279190000003852603949492264859_);}
	.st5{fill:#010101;}
	.st6{fill:none;stroke:#000000;stroke-width:1.5;stroke-linecap:round;stroke-linejoin:round;}
</style>
<g id="Layer_2">
</g>
<g class="st0" id="Layer_3">
</g>
<g id="Layer_1">
	<path d="M36.99,22.25c-5.25-1.43-10.48,0.62-13.3,5.24c-2.13,3.46-2.34,8.06-0.55,11.69c0.08,0.17,0.17,0.33,0.26,0.5
		c2.13,3.89,6.07,6.09,10.17,6.09c1.8,0,3.63-0.42,5.35-1.31c4.09-2.12,6.78-6.6,6.71-11.15C45.54,28,42.15,23.66,36.99,22.25z
		 M38.05,42.78c-4.71,2.44-10.43,0.69-13-4c-0.07-0.13-0.15-0.27-0.22-0.42c-1.51-3.08-1.33-6.96,0.46-9.89
		c2.89-4.72,7.84-5.32,11.21-4.4c4.32,1.18,7.17,4.82,7.24,9.27C43.8,37.2,41.52,40.99,38.05,42.78z M36.99,22.25
		c-5.25-1.43-10.48,0.62-13.3,5.24c-2.13,3.46-2.34,8.06-0.55,11.69c0.08,0.17,0.17,0.33,0.26,0.5c2.13,3.89,6.07,6.09,10.17,6.09
		c1.8,0,3.63-0.42,5.35-1.31c4.09-2.12,6.78-6.6,6.71-11.15C45.54,28,42.15,23.66,36.99,22.25z M38.05,42.78
		c-4.71,2.44-10.43,0.69-13-4c-0.07-0.13-0.15-0.27-0.22-0.42c-1.51-3.08-1.33-6.96,0.46-9.89c2.89-4.72,7.84-5.32,11.21-4.4
		c4.32,1.18,7.17,4.82,7.24,9.27C43.8,37.2,41.52,40.99,38.05,42.78z M36.99,22.25c-5.25-1.43-10.48,0.62-13.3,5.24
		c-2.13,3.46-2.34,8.06-0.55,11.69c0.08,0.17,0.17,0.33,0.26,0.5c2.13,3.89,6.07,6.09,10.17,6.09c1.8,0,3.63-0.42,5.35-1.31
		c4.09-2.12,6.78-6.6,6.71-11.15C45.54,28,42.15,23.66,36.99,22.25z M38.05,42.78c-4.71,2.44-10.43,0.69-13-4
		c-0.07-0.13-0.15-0.27-0.22-0.42c-1.51-3.08-1.33-6.96,0.46-9.89c2.89-4.72,7.84-5.32,11.21-4.4c4.32,1.18,7.17,4.82,7.24,9.27
		C43.8,37.2,41.52,40.99,38.05,42.78z"></path>
	<path d="M61.04,36.08c-1.71-5.33-3.6-10.75-7.72-15.11c-6.58-6.94-17.26-12.15-27.35-11.1c-0.01,0-0.01,0-0.02,0
		c-2.37,0.24-4.71,0.84-6.95,1.83c-4.88,2.17-8.27,6-9.79,11.07c-0.6,2-0.89,4.18-0.89,6.43c0,5.39,1.66,11.2,4.74,16.03
		c0.75,1.16,1.56,2.27,2.44,3.28c6.21,7.25,14.89,12.32,23.21,13.56c0.33,0.05,0.66,0.09,0.99,0.13c4.31,6.11,10.4,9.58,16.79,9.58
		h0.38c4.89-0.11,9.65-2.24,13.07-5.85c3.21-3.41,4.9-7.76,4.73-12.25C74.37,45.25,67.42,38.66,61.04,36.08z M11.01,23.32
		c1.36-4.53,4.39-7.95,8.75-9.9c2.11-0.93,4.33-1.47,6.59-1.67c9.03-0.23,18.53,8.3,23.95,16.87c3.35,5.31,3.43,11.15,0.22,16.03
		c-2.43,3.7-6.26,6.51-10.52,7.71c-11.43,3.24-19.58-5.57-22.55-9.5c-3.06-4.06-5.77-9.24-7.26-13.89
		C10.21,26.99,10.48,25.08,11.01,23.32z M16.92,47.29c-0.81-0.95-1.57-1.98-2.27-3.07v-0.01c-1.59-2.48-2.77-5.23-3.52-8.04
		c1.39,2.77,3.04,5.47,4.81,7.82c5.38,7.14,12.15,10.95,19.15,10.95c1.8,0,3.61-0.25,5.42-0.76c4.69-1.33,8.91-4.42,11.58-8.49
		c3.64-5.53,3.56-12.11-0.2-18.07c-3.51-5.55-8.67-11.07-14.41-14.44c5.62,1.86,10.8,5.22,14.47,9.09c4.1,4.32,5.81,9.71,7.62,15.41
		c0.83,2.59,1.68,5.28,2.78,7.83c0.45,1.06,1.08,1.9,1.69,2.71c0.53,0.7,1.03,1.36,1.37,2.11c1.06,2.37-1.67,6.41-3.31,8.83
		l-0.58,0.86c-0.72,1.1-2.04,2.58-3.08,3.15c-1.64,0.92-3.59,0.15-5.63-0.66c-0.75-0.3-1.48-0.59-2.17-0.78
		c-2.5-0.72-5-0.91-7.4-1.09c-1.41-0.11-2.83-0.22-4.26-0.43C31.23,59.05,22.77,54.1,16.92,47.29z M68.57,64.63
		c-3.07,3.25-7.35,5.17-11.74,5.26c-0.11,0-0.22,0.01-0.34,0.01c-5.3,0-10.39-2.68-14.24-7.45c0.28,0.02,0.56,0.04,0.84,0.06
		c2.43,0.19,4.71,0.36,7.03,1.03c0.64,0.18,1.3,0.45,1.99,0.72c1.47,0.58,3.06,1.22,4.67,1.22c0.86,0,1.73-0.19,2.58-0.66
		c1.37-0.76,2.9-2.48,3.74-3.76l0.56-0.85c1.98-2.91,4.96-7.32,3.46-10.65c-0.42-0.95-1.01-1.72-1.57-2.47
		c-0.57-0.76-1.11-1.47-1.48-2.32c-0.86-2.03-1.58-4.17-2.26-6.28c5.37,2.71,10.72,8.3,10.98,15.26
		C72.93,57.73,71.44,61.6,68.57,64.63z"></path>
</g>
<g id="Layer_4">
</g>
</svg>
