<svg viewBox="0 0 80 80" xmlns="http://www.w3.org/2000/svg" id="Layer_1"><defs><style>.cls-1{fill:#231f20;stroke-width:0px;}</style></defs><path d="M7.5,29.44v21.11h12.27l22.06,17.34V12.1l-22.06,17.34H7.5ZM38.92,18.1v43.81l-18.14-14.26h-10.37v-15.29h10.37l18.14-14.26ZM72.5,40.06c-.02,8.75-3.81,17.08-10.4,22.85l-1.1.96-1.92-2.19,1.1-.96c5.96-5.22,9.38-12.75,9.4-20.66.01-7.96-3.41-15.53-9.4-20.77l-1.1-.96,1.92-2.19,1.1.96c6.62,5.8,10.41,14.17,10.4,22.97ZM58.41,40.01c0,4.71-2.05,9.19-5.59,12.29l-1.1.96-1.92-2.19,1.1-.96c2.91-2.55,4.59-6.23,4.6-10.1,0-3.89-1.67-7.59-4.6-10.16l-1.1-.96,1.92-2.19,1.1.96c3.56,3.12,5.6,7.62,5.59,12.35Z" class="cls-1"></path></svg>