<svg xml:space="preserve" style="enable-background:new 0 0 80 80;" viewBox="0 0 80 80" y="0px" x="0px" xmlns:xlink="http://www.w3.org/1999/xlink" xmlns="http://www.w3.org/2000/svg" version="1.1">
<style type="text/css">
	.st0{display:none;}
	.st1{display:inline;fill:#FFFFFF;stroke:#000000;stroke-width:2;stroke-miterlimit:10;}
	.st2{stroke:#404040;stroke-width:1.5;stroke-miterlimit:10;}
	.st3{fill-rule:evenodd;clip-rule:evenodd;}
	.st4{clip-path:url(#SVGID_00000139257561723095173830000009808835119152190362_);}
	.st5{fill:#010101;}
	.st6{fill:none;stroke:#000000;stroke-width:1.5;stroke-linecap:round;stroke-linejoin:round;}
</style>
<g id="Layer_2">
</g>
<g class="st0" id="Layer_3">
</g>
<g id="Layer_1">
	<path d="M62.21,45.9c0.91,0.46,2.03,0.1,2.49-0.81l3.43-6.72c0.46-0.91,0.1-2.03-0.81-2.49l-26.05-13.3
		c-0.91-0.46-2.03-0.1-2.49,0.81l-3.43,6.72c-0.46,0.91-0.1,2.03,0.81,2.49L62.21,45.9z M47.16,53.21l-26.05-13.3
		c-0.91-0.46-2.03-0.1-2.49,0.81l-3.43,6.72c-0.46,0.91-0.1,2.03,0.81,2.49l26.05,13.3c0.91,0.46,2.03,0.1,2.49-0.81l3.43-6.72
		C48.43,54.8,48.07,53.68,47.16,53.21z M55.1,14.97c-7.92-4.04-16.94-4.76-25.39-2.02c-8.46,2.74-15.34,8.61-19.38,16.53
		C6.84,36.31,5.83,43.89,7.4,51.4c0.1,0.47,0.44,0.83,0.86,0.98c0.04,0.03,0.09,0.06,0.14,0.09l8.55,4.37
		c0.2,0.1,0.4,0.15,0.61,0.15c0.19,0,0.38-0.05,0.55-0.13l0.19,4.34c0.03,0.64,0.4,1.22,0.97,1.52l11.24,5.78
		c0.63,0.32,1.38,0.25,1.94-0.19l6.08-4.8l-20.6-10.62L18,54.37l-8.1-4.13c-1.27-6.71-0.31-13.45,2.8-19.54
		c3.72-7.28,10.04-12.68,17.82-15.2c7.78-2.53,16.07-1.86,23.35,1.85c13.06,6.66,19.5,21.84,15.44,35.78l-11.76-6l1.24-0.82
		L38.12,35.86L37.8,43.6c-0.03,0.7,0.36,1.36,0.98,1.68l11.28,5.72c0.58,0.29,1.26,0.25,1.8-0.1l3.43-2.26
		c0.12,0.28,0.33,0.52,0.62,0.67l13.59,6.94c0.02,0.01,0.05,0.02,0.07,0.03c0.04,0.02,0.07,0.04,0.11,0.05
		c0.02,0.01,0.03,0,0.05,0.01c0.12,0.03,0.23,0.06,0.35,0.06c0.01,0,0.03,0.01,0.04,0.01c0.06,0,0.12-0.02,0.18-0.03
		c0.06-0.01,0.13-0.01,0.19-0.03c0.07-0.02,0.14-0.06,0.2-0.09c0.05-0.02,0.1-0.04,0.14-0.07c0.06-0.04,0.12-0.09,0.18-0.14
		c0.04-0.03,0.08-0.07,0.11-0.1c0.05-0.06,0.1-0.13,0.14-0.2c0.02-0.03,0.04-0.04,0.05-0.07c0.01-0.03,0.02-0.05,0.03-0.08
		c0.01-0.03,0.04-0.06,0.05-0.09C76.8,39.89,69.8,22.47,55.1,14.97z"></path>
</g>
<g id="Layer_4">
</g>
</svg>
