<?xml version="1.0" encoding="UTF-8"?><svg id="Layer_1" xmlns="http://www.w3.org/2000/svg" viewBox="0 0 80 80"><defs><style>.cls-1{fill:#231f20;stroke-width:0px;}</style></defs><path class="cls-1" d="M17.22,21.57h3.97v.89h-2.95v1.5h2.89v.89h-2.89v2.5h-1.02v-5.79ZM22.72,27.36h1.02v-5.79h-1.02v5.79ZM29.44,27.36h.98v-5.79h-1.02v4.11l-2.96-4.11h-1.04v5.79h1.02v-4.22l3.02,4.22ZM33.11,26.47v-4h1.14c1.29,0,1.99.89,1.99,2.01s-.73,2-1.99,2h-1.14ZM32.09,27.36h2.15c1.81,0,3.03-1.19,3.03-2.89s-1.22-2.9-3.03-2.9h-2.15v5.79ZM45.27,27.36h1.09l1.65-5.79h-1.14l-1.12,4.46-1.2-4.46h-.81l-1.2,4.46-1.13-4.46h-1.14l1.66,5.79h1.09l1.12-4.27,1.13,4.27ZM49.29,27.36h1.02v-5.79h-1.02v5.79ZM53.36,27.36h1.02v-4.9h1.75v-.89h-4.53v.89h1.75v4.9ZM61.46,27.36h1.02v-5.79h-1.02v2.37h-3.01v-2.37h-1.02v5.79h1.02v-2.53h3.01v2.53ZM59.84,45.64c0,.11-.08.21-.2.21h-10.6c-.11,0-.2-.1-.2-.21,0-.04,0-.07.03-.11,1.06-1.91,3.02-3.34,5.47-3.34,3.67,0,5.2,2.84,5.47,3.34.02.04.03.08.03.11M64.39,48.41c0-2.77-1.13-5.28-2.95-7.1-1.82-1.82-4.33-2.94-7.1-2.94s-5.21,1.04-7.1,2.94c-1.9,1.9-2.94,4.42-2.94,7.1s1.13,5.28,2.94,7.1c1.82,1.82,4.33,2.94,7.1,2.94,3.82,0,7.14-2.14,8.84-5.29.02-.04.03-.07.03-.1,0-.08-.06-.13-.17-.13h-4.16c-.15,0-.37.09-.49.19-1.09.94-2.51,1.51-4.06,1.51-3.04,0-5.57-2.19-6.11-5.07v-.05c0-.14.11-.25.25-.25h15.6c.15,0,.28-.12.29-.27,0-.2.02-.39.02-.59M41.47,32.39c.16,0,.28.13.28.29v25.51c0,.16-.13.28-.28.28h-3.28c-.16,0-.29-.13-.29-.28v-25.51c0-.16.13-.29.29-.29h3.28M32.73,32.37c1.22,0,2.21.99,2.21,2.21s-.99,2.21-2.21,2.21-2.21-.99-2.21-2.21.99-2.21,2.21-2.21M34.37,38.34c.16,0,.28.13.28.29v19.57c0,.16-.13.29-.28.29h-3.28c-.16,0-.28-.13-.28-.29v-19.57c0-.16.13-.29.28-.29h3.28M27.74,38.63c0-.16-.13-.29-.29-.29h-7.61v-5.66c0-.16-.12-.28-.28-.28h-3.28c-.16,0-.28.13-.28.28v15.74c0,5.55,4.51,10.06,10.06,10.06h1.4c.16,0,.29-.13.29-.28v-3.28c0-.16-.13-.28-.29-.28h-1.4c-3.43,0-6.21-2.79-6.21-6.21v-6.22h7.61c.16,0,.29-.13.29-.28v-3.28M63.09,58.47h.28v-.72h0l.27.72h.19l.27-.72h0v.72h.28v-1.11h-.38l-.27.72-.26-.72h-.38v1.11ZM62.23,58.47h.28v-.87h.33v-.24h-.93v.24h.33v.87ZM75,60.94V19.06c0-5.24-4.26-9.5-9.5-9.5H14.5c-5.24,0-9.5,4.26-9.5,9.5v41.87c0,5.24,4.26,9.5,9.5,9.5h51c5.24,0,9.5-4.26,9.5-9.5ZM65.5,11.56c4.13,0,7.5,3.37,7.5,7.5v41.87c0,4.13-3.37,7.5-7.5,7.5H14.5c-4.13,0-7.5-3.37-7.5-7.5V19.06c0-4.13,3.37-7.5,7.5-7.5h51Z"/></svg>