<svg viewBox="0 0 80 80" xmlns="http://www.w3.org/2000/svg" id="Layer_1"><defs><style>.cls-1{fill:#231f20;stroke-width:0px;}</style></defs><path d="M63.16,21.73H9.7c-3.38,0-6.12,2.8-6.12,6.25v24.04c0,3.45,2.74,6.25,6.12,6.25h53.45c3.38,0,6.12-2.8,6.12-6.25v-24.04c0-3.45-2.74-6.25-6.12-6.25ZM67.64,52.02c0,2.54-2.01,4.61-4.48,4.61H9.7c-2.47,0-4.48-2.07-4.48-4.61v-24.04c0-2.54,2.01-4.61,4.48-4.61h53.45c2.47,0,4.48,2.07,4.48,4.61v24.04Z" class="cls-1"></path><path d="M73.01,32.79h-1.81v14.42h1.81c1.88,0,3.41-1.56,3.41-3.49v-7.44c0-1.93-1.53-3.49-3.41-3.49Z" class="cls-1"></path><path d="M28.35,39.19v-.04c2.13-.5,2.48-1.76,2.48-2.94,0-2.92-2.4-4.16-8.63-4.16-5.18,0-8.38,1.03-8.65,4.28h6.02c.39-.61.62-.76,2.58-.76,2.21,0,2.58.55,2.58,1.15,0,.53-.31.99-1.56.99h-3.98v3.4h3.71c1.48,0,2.23.25,2.23,1.18,0,.67-.33,1.43-2.95,1.43-1.17,0-2.01-.13-2.48-.4-.49-.27-.72-.67-.78-1.2h-5.9c.33,4.96,5.18,5.25,9.55,5.25,6.62,0,8.65-2.02,8.65-4.79,0-1.87-1.09-2.98-2.89-3.4Z" class="cls-1"></path><path d="M41.97,37.47c-2.03,0-3.36.27-4.24.84.1-1.93,1.23-2.73,3.44-2.73.72,0,1.35.06,1.84.23.55.19.88.5.98.95h5.78c-.66-3.74-4.02-4.7-8.59-4.7-4.84,0-9,1.43-9,7.81,0,6.72,4.75,7.52,9.61,7.52,5.68,0,8.14-2.1,8.14-5.19,0-3.76-3.83-4.72-7.97-4.72ZM41.15,43.85c-1.8,0-2.91-.57-2.91-1.49s.61-1.49,2.91-1.49c1.8,0,2.89.57,2.89,1.49s-.59,1.49-2.89,1.49Z" class="cls-1"></path><path d="M57.56,38.91c-1.68,0-2.72.69-3.06,1.19h-.03v-3.74h-3.51v10.63h3.51v-3.63c0-1.31.69-1.87,1.63-1.87.84,0,1.35.43,1.35,1.42v4.07h3.51v-5.01c0-2.19-1.46-3.08-3.4-3.08Z" class="cls-1"></path></svg>