<svg xml:space="preserve" style="enable-background:new 0 0 80 80;" viewBox="0 0 80 80" y="0px" x="0px" xmlns:xlink="http://www.w3.org/1999/xlink" xmlns="http://www.w3.org/2000/svg" version="1.1">
<style type="text/css">
	.st0{display:none;}
	.st1{display:inline;fill:#FFFFFF;stroke:#000000;stroke-width:2;stroke-miterlimit:10;}
	.st2{stroke:#404040;stroke-width:1.5;stroke-miterlimit:10;}
	.st3{fill-rule:evenodd;clip-rule:evenodd;}
	.st4{clip-path:url(#SVGID_00000083063985644221517110000012600675829028856248_);}
	.st5{fill:#010101;}
	.st6{fill:none;stroke:#000000;stroke-width:1.5;stroke-linecap:round;stroke-linejoin:round;}
</style>
<g id="Layer_2">
</g>
<g class="st0" id="Layer_3">
</g>
<g id="Layer_1">
	<path d="M40,53c7.16,0,12.98-5.82,12.98-12.98V23.88c0-7.15-5.82-12.98-12.98-12.98s-12.98,5.82-12.98,12.98v16.14
		C27.02,47.17,32.84,53,40,53z M29.32,23.88c0-5.89,4.79-10.68,10.68-10.68s10.68,4.79,10.68,10.68v16.14
		c0,5.89-4.79,10.68-10.68,10.68s-10.68-4.79-10.68-10.68V23.88z M57.83,31.96v8.12c0,9.44-7.38,17.17-16.68,17.77V69.1h-2.3V57.85
		c-9.3-0.6-16.68-8.33-16.68-17.77v-8.12h2.3v8.12c0,8.56,6.97,15.53,15.53,15.53s15.53-6.97,15.53-15.53v-8.12H57.83z"></path>
</g>
<g id="Layer_4">
</g>
</svg>
