<svg viewBox="0 0 80 80" xmlns="http://www.w3.org/2000/svg" id="Layer_1"><defs><style>.cls-1{fill:#231f20;stroke-width:0px;}</style></defs><path d="M38.6,42.6h.35v2.78c-.11,0-.21.03-.3.03-1.35,0-5.43,0-6.79,0-.24,0-.36-.06-.44-.3-.47-1.39-.96-2.77-1.44-4.15-.06-.17-.12-.34-.22-.61-2.25,5.41-4.47,10.72-6.68,16.03-.03,0-.06,0-.08,0-1.41-7.61-2.82-15.21-4.22-22.82-.03,0-.06,0-.08,0-1.26,4.28-2.52,7.88-3.79,12.21l-9.9-.14.1-2.69h7.63c1.98-6.74,4.62-14.78,6.58-21.46.03,0,.06,0,.09,0,1.55,8.37,3.09,16.73,4.64,25.1h.09c1.94-4.66,3.88-9.33,5.82-13.99.03,0,.05,0,.08,0,.19.53.38,1.05.57,1.58.96,2.74,1.91,5.49,2.86,8.24.07.2.18.19.33.19.69,0,4.11,0,4.81,0ZM42.9,59.53h2.42V20.47h-2.42v39.06ZM50.62,41.72h3.43v-3.43h-3.43v3.43ZM55.86,41.72h3.43v-3.43h-3.43v3.43ZM61.1,41.72h3.43v-3.43h-3.43v3.43ZM66.33,41.72h3.43v-3.43h-3.43v3.43ZM71.57,38.28v3.43h3.43v-3.43h-3.43Z" class="cls-1"></path></svg>