<svg viewBox="0 0 80 80" xmlns="http://www.w3.org/2000/svg" id="Layer_1"><defs><style>.cls-1{fill:#231f20;stroke-width:0px;}</style></defs><path d="M49.35,42.11c.25.43.83,1.42.35,2.39-.48.96-1.62,1.1-2.1,1.16-.72.08-1.44.13-2.22.18l.09,1.25c.13,1.77.25,3.46.37,5.14.24,3.52-1.3,5.29-4.85,5.57l-1.31.1c-1.56.12-3.12.25-4.68.31-.27.01-.35.05-.36.05-.1.91-.25,1.77-.41,2.63-.35,1.89-.7,3.83-.91,5.74l-.14,1.24-2.49-.27.14-1.24c.22-2,.59-3.99.94-5.92.15-.84.31-1.69.45-2.54.16-.96.76-2.11,2.67-2.19,1.53-.06,3.06-.19,4.59-.31l1.32-.1c2.16-.17,2.69-.76,2.54-2.9-.11-1.68-.24-3.37-.37-5.13l-.27-3.76,2.4-.17c.7-.04,1.35-.08,1.99-.15-3.08-5.32-4.94-10.13-5.84-15.12-.81-4.5-3.68-8.51-7.88-10.99-4.3-2.55-9.34-3.16-13.82-1.66-4.56,1.52-8.21,4.69-10.27,8.91-2.05,4.22-2.34,9.08-.79,13.7.99,2.95,1.71,6.2,2.22,9.93.5,3.69.17,7.68-1.01,12.2l-.32,1.21-2.42-.63.32-1.21c1.09-4.2,1.41-7.87.95-11.23-.49-3.57-1.18-6.67-2.11-9.47-1.75-5.24-1.43-10.78.92-15.59,2.36-4.83,6.52-8.45,11.72-10.19,5.17-1.72,10.96-1.04,15.89,1.88,4.82,2.85,8.12,7.48,9.06,12.7.86,4.74,2.65,9.34,5.65,14.48ZM62.89,31.89l-2.03,2.03c2.92,2.92,4.52,6.79,4.52,10.9s-1.61,7.98-4.52,10.9l2.03,2.03c3.46-3.46,5.37-8.05,5.37-12.93s-1.91-9.47-5.37-12.93ZM67.66,27.12l-2.03,2.03c4.19,4.19,6.5,9.76,6.5,15.67s-2.31,11.48-6.5,15.67l2.03,2.03c4.74-4.74,7.34-11.02,7.34-17.7s-2.61-12.97-7.34-17.7ZM58.12,36.66l-2.03,2.03c1.64,1.64,2.55,3.82,2.55,6.13s-.9,4.49-2.55,6.13l2.03,2.03c2.18-2.19,3.39-5.09,3.39-8.17s-1.2-5.98-3.39-8.17ZM26.47,40.59c.35-.57.59-1.22.68-1.92.33-2.67-1.56-5.09-4.22-5.43s-5.09,1.56-5.43,4.22,1.56,5.09,4.22,5.43c.42.05.82.03,1.22-.02l2.75,3.54c.47.6,1.34.71,1.94.24l1.12-.87c.6-.47.71-1.34.24-1.94l-2.53-3.25Z" class="cls-1"></path></svg>