<svg viewBox="0 0 80 80" xmlns="http://www.w3.org/2000/svg" id="Layer_1"><defs><style>.cls-1{fill:#231f20;stroke-width:0px;}</style></defs><path d="M45.26,36.9l-.05-1.46h-1.92s0-8.84,0-8.84l-6.59-.02v8.85h-1.94v1.35c-.01,3.21-.04,14.65-.01,17.36.02,1.34.78,2.53,1.96,3.14.22,1.01,1.06,1.75,2.12,1.8.37.02.75.03,1.13.03.4,0,.8,0,1.2-.02,1.06-.04,2-.86,2.17-1.86,1.21-.66,1.94-1.93,1.94-3.47v-16.85ZM41.96,55.45l-.76.35v.8c0,.1,0,.19-.12.31-.71.03-1.43.03-2.25-.13l-1.08.08,1.08-.37-.03-.79-.77-.21c-.66-.18-1.1-.73-1.11-1.36-.03-2.51,0-12.52,0-16.51h1.95v-8.85h2.25s0,8.85,0,8.85h1.97s0,16.14,0,16.14c0,.87-.4,1.48-1.14,1.7ZM43.29,19.4h-6.59v6.97h6.59v-6.97ZM41.12,24.2h-2.25v-2.64h2.25v2.64ZM43.29,13.29c0-1.82-1.48-3.29-3.29-3.29s-3.29,1.48-3.29,3.29v6.08h6.59v-6.08ZM41.13,17.21h-2.25v-3.91c0-.62.5-1.13,1.12-1.13s1.13.51,1.13,1.13v3.91ZM37.21,59.32h2.17v10.68h-2.17v-10.68ZM40.57,59.32h2.17v10.68h-2.17v-10.68Z" class="cls-1"></path></svg>