<svg viewBox="0 0 80 80" xmlns="http://www.w3.org/2000/svg" id="Layer_1"><defs><style>.cls-1{fill:#231f20;stroke-width:0px;}</style></defs><path d="M40,7.5C22.08,7.5,7.5,22.08,7.5,40s14.58,32.5,32.5,32.5,32.5-14.58,32.5-32.5S57.92,7.5,40,7.5ZM40,69.65c-16.35,0-29.65-13.3-29.65-29.65s13.3-29.65,29.65-29.65,29.65,13.3,29.65,29.65-13.3,29.65-29.65,29.65ZM25.4,42.08h2.85v17.66h-2.85v-17.66ZM34.17,34.84h2.85v24.91h-2.85v-24.91ZM42.95,27.51h2.85v32.24h-2.85V27.51ZM51.71,20.21h2.85v39.54h-2.85V20.21Z" class="cls-1"></path></svg>