<svg viewBox="0 0 80 80" xmlns="http://www.w3.org/2000/svg" id="Layer_1"><defs><style>.cls-1{fill:#231f20;stroke-width:0px;}</style></defs><path d="M28.17,43.23c.29.16.71.16,1.06.11,1.27-.18,1.99-1.14,2.61-2.11.15-.23-.05-.92-.31-1.13-.26-.21-.82-.17-1.19-.06-.31.09-.56.44-.81.7-.43.45-.79.43-1.23-.03-1.27-1.32-2.57-2.62-3.89-3.88-.51-.49-.42-.85.02-1.29,3.98-3.97,7.96-7.95,11.93-11.93.48-.48.84-.43,1.29.03,1.08,1.11,2.18,2.19,3.28,3.29q1.2,1.2.03,2.38c-2.37,2.37-4.74,4.74-7.11,7.12-.61.61-.68,1.25-.25,1.71.44.48,1.13.42,1.76-.21,4.98-4.98,9.97-9.95,14.94-14.94,1.1-1.11,1.07-2.52,0-3.65q-1.3-1.37.02-2.69c1.42-1.42,2.85-2.84,4.26-4.28.62-.64.56-1.37-.11-1.77-.57-.34-1.03-.1-1.45.32-1.4,1.41-2.81,2.81-4.22,4.21-1.62,1.61-1.24,1.43-2.69.02-1.55-1.52-2.78-1.54-4.32,0-3.74,3.74-7.48,7.48-11.22,11.22-2.66,2.66-5.32,5.33-7.99,7.99-.79.79-1.11,1.72-.65,2.74.3.67.09,1.04-.35,1.47-2.16,2.14-4.31,4.3-6.46,6.45-.13.13-.25.26-.38.38-2.08,2.08-4.18,4.14-6.22,6.26-1.25,1.29-1.34,3.17-.34,4.46,1.11,1.44,2.88,1.91,4.4,1.11.51-.27.99-.66,1.4-1.07,4.17-4.15,8.33-8.3,12.47-12.48.52-.52.95-.86,1.71-.44ZM42.85,17.13c.19-.17.37-.35.55-.54.36-.36.68-.36,1.05.02.65.69,1.34,1.35,2.01,2.02.67.67,1.33,1.36,2.02,2.01.42.39.4.73.01,1.11-.02.02-.03.04-.05.06-1,1.13-1.09,1.14-2.14.08-1.14-1.14-2.27-2.31-3.44-3.43-.5-.48-.53-.88-.01-1.34ZM39.07,20.9c1.47-1.64,1.46-1.66,3.01-.1l1.15,1.15s0,0,0,0c.67.67,1.34,1.36,2.03,2.02.35.34.35.61.04.99-1.44,1.77-1.54,1.79-3.14.19-1.02-1.02-2.03-2.05-3.06-3.06-.41-.4-.43-.73-.03-1.18ZM13.99,53c-.65.72-1.34,1.42-2.06,2.08-.57.52-1.27.48-1.81-.02-.55-.52-.6-1.24-.09-1.86.31-.37.68-.7,1.03-1.04,0,0,0,0-.01-.01l.22-.22c1.24-1.24,1.83-1.18,2.76.35.11.18.09.58-.04.73ZM16.89,50.14q-.94.94-1.93-.05c-.92-.93-.92-.94.02-1.88s.94-.94,1.93.05c.92.93.92.93-.02,1.88ZM20.28,46.76q-.93.92-1.93-.08c-.91-.92-.91-.93.04-1.87q.95-.94,1.92.03t-.03,1.92ZM25.33,41.69c-.37.36-.73.73-1.1,1.09,0,0,0,0,0,0l-.11.11c-1.43,1.43-1.58,1.42-2.82-.22-.12-.16-.15-.58-.03-.72.69-.76,1.36-1.59,2.19-2.18.91-.65,1.11.57,1.65.9.35.21.65.57.2,1.01ZM71.28,22.97c-1.13-1.05-2.85-1.23-4.15-.39-.41.26-.79.59-1.13.93-2.09,2.07-4.16,4.15-6.24,6.23-2.15,2.15-4.31,4.3-6.45,6.46-.39.4-.71.53-1.27.28-.95-.42-1.88-.26-2.64.49-2.62,2.6-5.23,5.21-7.83,7.82-.58.58-.6,1.16-.13,1.63.47.47,1.04.45,1.63-.14,2.29-2.27,4.57-4.55,6.85-6.83.24-.24.45-.54.74-.67.24-.11.69-.14.85,0,1.44,1.37,2.84,2.78,4.21,4.21.15.16.11.59.03.85-.07.22-.32.39-.5.57-3.76,3.76-7.51,7.52-11.27,11.27-.96.95-.96.95-1.94-.03-1.1-1.09-2.19-2.19-3.28-3.28-.86-.86-.85-.88.02-1.78.22-.22.44-.44.63-.68.34-.46.31-.92-.09-1.33-.42-.44-.89-.48-1.39-.12-.12.09-.24.2-.35.31-2.63,2.63-5.26,5.24-7.87,7.89-1.09,1.11-1.06,2.52.02,3.65.32.34.63.69.99.98.56.46.5.85.01,1.33-1.49,1.46-2.96,2.95-4.43,4.43-.22.22-.44.44-.64.67-.41.48-.46.98,0,1.45.48.5,1.02.48,1.5.01.89-.86,1.76-1.74,2.64-2.61.84-.84,1.69-1.67,2.52-2.52.4-.41.77-.49,1.16,0,.03.04.07.07.11.11,2.04,1.99,2.97,1.99,4.97-.01,6.18-6.18,12.36-12.38,18.56-18.54,1.03-1.02,1.49-2.06.84-3.46-.08-.17.02-.5.14-.68.2-.3.48-.54.73-.79,4.05-4.05,8.1-8.1,12.14-12.15.42-.42.84-.86,1.12-1.37.79-1.39.44-3.06-.8-4.21ZM36.8,62.88c-.06.05-.12.1-.17.16-.38.39-.72.4-1.11-.02-.63-.68-1.31-1.32-1.96-1.98-.67-.68-1.34-1.37-2.03-2.02-.41-.39-.42-.73-.03-1.11.18-.18.37-.36.54-.55.44-.5.83-.45,1.29.02,1.15,1.19,2.33,2.34,3.5,3.51.99.99.99,1.04-.02,1.99ZM39.88,59.79c-.4.4-.72.35-1.1-.05-.63-.68-1.31-1.32-1.96-1.97-.38-.38-.77-.77-1.15-1.15-1.52-1.52-1.5-1.5.05-2.97.5-.47.86-.4,1.29.05.99,1.01,2.02,1.99,3,3.01,1.59,1.65,1.79,1.17-.14,3.08ZM58.64,37.77c-.59.76-1.36,1.39-2.05,2.08-.28.28-.56.31-.86,0-1.75-1.78-1.66-1.24-.16-2.82.04-.04.07-.07.11-.11,0,0,0,0,0,0,.34-.34.7-.68,1.03-1.04.5-.53.88-.16,1.12.22.32.52,1.52.73.8,1.65ZM61.65,34.81q-.99.99-1.92.05-.99-.99-.06-1.92.97-.97,1.93,0c.96.96.96.97.05,1.87ZM65.01,31.45c-.93.93-.94.93-1.88,0q-.98-.98-.03-1.93c.93-.93.94-.93,1.88,0q.98.98.03,1.93ZM69.95,26.48c-.64.7-1.32,1.37-2.02,2.01-.15.14-.55.23-.65.14-.52-.48-1.09-.97-1.41-1.58-.1-.19.54-.76.85-1.16.08-.1.18-.18.27-.27,0,0,0,0,0,0,.35-.35.67-.71,1.04-1.03.61-.54,1.33-.52,1.87,0,.54.53.59,1.26.05,1.86Z" class="cls-1"></path></svg>