<svg viewBox="0 0 80 80" xmlns="http://www.w3.org/2000/svg" id="Layer_1"><defs><style>.cls-1{fill:#231f20;stroke-width:0px;}</style></defs><path d="M34.39,37.83c1.2,2.08,1.77,4.3,1.75,6.71-.04,6.31-.01,12.63-.02,18.94,0,1.2,0,1.2-1.22,1.2-1.85,0-1.69.18-1.69-1.64,0-6.37-.02-12.74.01-19.11,0-1.56-.38-2.98-1.1-4.32-1.37-2.54-3.25-4.67-5.26-6.7-4.06-4.11-8.56-7.69-13.16-11.15-.12-.09-.27-.16-.59-.34.16,1.07.28,1.96.43,2.85.41,2.39.82,4.78,1.26,7.16.13.7-.17.85-.78.94-1.87.3-1.9.33-2.2-1.42-.78-4.5-1.53-9.01-2.28-13.52-.03-.16-.02-.32-.04-.58,1.08-.12,2.13-.25,3.17-.36,3.91-.39,7.83-.75,11.73-1.16.73-.08,1.12.11,1.14.87.05,2.01.59,1.88-1.64,2.07-2.89.24-5.77.57-8.84.88.29.24.48.4.68.56,4,3.35,8.08,6.62,11.99,10.08,2.62,2.31,4.9,4.97,6.66,8.03ZM66.32,16.42c-3.19-.31-6.38-.65-9.57-.94-.72-.07-1.74-.29-2.12.08-.42.41-.27,1.41-.36,2.16,0,.08.03.16.08.37,3.43.34,6.9.69,10.55,1.05-1.53,1.18-2.91,2.23-4.26,3.3-4.62,3.68-9.11,7.48-12.86,12.08-2.66,3.27-4.2,6.84-4.04,11.21.21,5.72.05,11.45.05,17.18,0,1.98-.17,1.75,1.74,1.76,1.16,0,1.16,0,1.16-1.16,0-6.57,0-13.13,0-19.7,0-.55,0-1.12.13-1.66.59-2.69,2.23-4.78,3.96-6.81,3.19-3.73,6.92-6.9,10.73-9.97,1.65-1.33,3.34-2.61,5.18-4.05,0,.48.04.73,0,.97-.47,2.72-.98,5.43-1.41,8.16-.31,1.99-.67,1.67,1.45,2.03,1.09.19,1.08.16,1.26-.91.59-3.49,1.19-6.98,1.78-10.47.24-1.39.46-2.78.71-4.3-1.47-.14-2.83-.27-4.18-.4Z" class="cls-1"></path></svg>